<svg width="100" height="100" viewBox="0 0 100 100" fill="none" xmlns="http://www.w3.org/2000/svg">
<rect opacity="0.01" width="100" height="100" fill="white"/>
<path fill-rule="evenodd" clip-rule="evenodd" d="M77.6323 41.9161L86.3727 31.665C86.9076 31.0739 87.1285 30.2632 86.9674 29.4825C86.8063 28.7018 86.2825 28.0448 85.5573 27.7138L60.3269 15.2417C60.0793 15.1192 59.7794 15.2207 59.6569 15.4682C59.5345 15.7158 59.6359 16.0157 59.8835 16.1381L85.1315 28.6186C85.5725 28.8157 85.8915 29.2132 85.9885 29.6864C86.0855 30.1596 85.9486 30.6506 85.6208 31.0053L76.7614 41.3957L64.8444 34.4497C64.6058 34.3106 64.2995 34.3912 64.1604 34.6299C64.0212 34.8685 64.1019 35.1748 64.3405 35.314L75.8149 42.002L49.6638 54.4917L23.5353 42.0123L34.529 35.9057C34.6864 35.8195 34.7856 35.6556 34.7889 35.4761C34.7921 35.2966 34.699 35.1292 34.5447 35.0374C34.3905 34.9455 34.1989 34.9434 34.0427 35.0317L22.8085 41.2719L14.0866 31.1113C13.7578 30.756 13.6204 30.264 13.7176 29.7898C13.8148 29.3156 14.1347 28.9173 14.5768 28.7202L39.1345 16.1347C39.2945 16.0537 39.3989 15.8932 39.408 15.7141C39.4171 15.5349 39.3297 15.3646 39.1787 15.2677C39.0278 15.1708 38.8365 15.1622 38.6775 15.2451L14.1384 27.8212C13.415 28.156 12.8945 28.8155 12.7369 29.5968C12.5793 30.3781 12.8035 31.1878 13.3405 31.7768L21.8792 41.7257L13.2868 49.8217C12.7044 50.3701 12.4196 51.1642 12.5208 51.9577C12.6221 52.7512 13.0971 53.4484 13.7985 53.833L21.945 58.3582V72.8173C21.9479 73.7795 22.5001 74.6555 23.3669 75.0732L48.5866 87.1181C49.2679 87.4449 50.0606 87.4449 50.7419 87.1181L75.9616 75.0732C76.8284 74.6555 77.3806 73.7795 77.3835 72.8173V58.1513L85.4235 53.7563C86.1263 53.3725 86.6027 52.6753 86.7047 51.8811C86.8067 51.087 86.5221 50.292 85.9391 49.7431L77.6323 41.9161ZM13.5134 51.833C13.4493 51.356 13.6204 50.8775 13.9724 50.5493L22.421 42.5886L48.6232 55.1031L38.1159 65.002C37.6451 65.4477 36.9406 65.539 36.3718 65.228L14.2809 52.957C13.8581 52.7287 13.5721 52.3098 13.5134 51.833ZM22.945 72.8173C22.9467 73.3948 23.2782 73.9205 23.7985 74.1709L49.0183 86.2158C49.0658 86.2352 49.1144 86.252 49.1638 86.2664V55.9672L38.8015 65.7294C38.0149 66.4731 36.8385 66.6244 35.8894 66.104L22.945 58.9137V72.8173ZM76.3835 72.8173C76.3818 73.3948 76.0503 73.9205 75.53 74.1709L50.3102 86.2158C50.2623 86.2353 50.2134 86.2523 50.1638 86.2668V56.5368L59.9216 65.7294C60.7086 66.4737 61.886 66.6251 62.8356 66.104L76.3835 58.698L76.3835 72.8173ZM84.9441 52.8783C85.3676 52.65 85.6543 52.2308 85.7136 51.7533C85.7768 51.2767 85.6054 50.7989 85.2536 50.4712L76.8948 42.5947L50.3032 55.2947L60.6071 65.0019C61.0797 65.4483 61.7863 65.5389 62.3561 65.226L84.9441 52.8783Z" fill="black"/>
<path d="M48.3111 37.7559C48.8963 38.3242 49.8274 38.3242 50.4127 37.7559L58.5748 29.75C58.7706 29.5561 58.7728 29.2405 58.5797 29.0439C58.3866 28.8473 58.071 28.8439 57.8736 29.0361L49.8619 36.8945V12.5C49.8619 12.2239 49.638 12 49.3619 12C49.0858 12 48.8619 12.2239 48.8619 12.5V36.8955L40.8492 29.0361C40.7217 28.9109 40.537 28.8632 40.3648 28.911C40.1926 28.9588 40.0589 29.0949 40.0142 29.2679C39.9695 29.441 40.0205 29.6247 40.148 29.75L48.3111 37.7559Z" fill="black"/>
</svg>
