<svg width="86" height="40" viewBox="0 0 86 40" fill="none" xmlns="http://www.w3.org/2000/svg">
<path d="M36.5862 31.6591H30.1504L34.1758 6.76892H40.6113L36.5862 31.6591Z" fill="#151515"/>
<path d="M59.9165 7.37742C58.6471 6.8738 56.6337 6.31775 54.1441 6.31775C47.7885 6.31775 43.313 9.70687 43.2855 14.5523C43.2327 18.1272 46.4899 20.1128 48.926 21.3048C51.4159 22.5229 52.2623 23.3179 52.2623 24.4036C52.237 26.0711 50.2503 26.8397 48.3974 26.8397C45.8279 26.8397 44.4511 26.4434 42.3589 25.5157L41.5114 25.118L40.6108 30.7053C42.1203 31.393 44.9013 32.0033 47.7885 32.03C54.5414 32.03 58.9378 28.6933 58.9899 23.5298C59.0156 20.6963 57.2957 18.5253 53.5877 16.7512C51.3367 15.6123 49.9582 14.8444 49.9582 13.6791C49.9846 12.6198 51.1241 11.5348 53.6651 11.5348C55.7574 11.4817 57.2946 11.9846 58.4591 12.4878L59.0412 12.7521L59.9165 7.37742Z" fill="#151515"/>
<path fill-rule="evenodd" clip-rule="evenodd" d="M71.4363 6.76892H76.4144L81.6065 31.6587H75.6475C75.6475 31.6587 75.0644 28.7989 74.8796 27.9251H66.6166C66.3776 28.5867 65.2658 31.6587 65.2658 31.6587H58.5129L68.0725 8.83407C68.7348 7.21869 69.9012 6.76892 71.4363 6.76892ZM71.0397 15.8773C71.0397 15.8773 69.0002 21.4115 68.4702 22.8414H73.8196C73.5549 21.5969 72.3362 15.6391 72.3362 15.6391L71.8864 13.4944C71.697 14.0466 71.4231 14.8059 71.2383 15.3181C71.1131 15.6652 71.0289 15.8988 71.0397 15.8773Z" fill="#151515"/>
<path d="M24.7749 6.76892L18.4722 23.7416L17.7834 20.2994C16.6182 16.3274 12.9637 12.012 8.8855 9.86629L14.6586 31.6327H21.4643L31.5803 6.76892H24.7749V6.76892Z" fill="#151515"/>
<path d="M12.6195 6.76892H2.26487L2.15894 7.27183C10.2362 9.33733 15.5856 14.3161 17.7834 20.3004L15.5324 8.86117C15.1618 7.27148 14.023 6.82136 12.6195 6.76892Z" fill="#151515"/>
<path opacity="0.01" fill-rule="evenodd" clip-rule="evenodd" d="M0 0H86V40H0V0Z" fill="white"/>
</svg>
