<svg width="100" height="100" viewBox="0 0 100 100" fill="none" xmlns="http://www.w3.org/2000/svg">
<rect opacity="0.01" width="100" height="100" fill="white"/>
<path d="M20.1318 38.5494C20.1745 38.561 20.2186 38.5668 20.2629 38.5667C20.4922 38.5664 20.6927 38.4122 20.7517 38.1907L26.7689 15.646C27.2784 13.7565 29.2186 12.6336 31.1107 13.1334L49.7391 18.1055C51.6315 18.6108 52.7561 20.5544 52.2512 22.4468L50.9523 27.3141C50.9177 27.4439 50.936 27.5821 51.0033 27.6984C51.0705 27.8147 51.1813 27.8995 51.3111 27.9341C51.5307 27.9924 51.7619 27.8939 51.872 27.695C53.8203 26.1936 56.5124 26.1127 58.5475 27.4942C60.5826 28.8758 61.5008 31.4077 60.8245 33.7726C60.1482 36.1375 58.03 37.8011 55.5722 37.8977C53.1601 37.9891 50.951 36.554 50.0541 34.313C50.0102 34.1394 49.8765 34.0026 49.704 33.9547C49.434 33.885 49.1581 34.0447 49.084 34.3134L46.234 44.9915C46.1993 45.1213 46.2176 45.2595 46.2849 45.3758C46.3522 45.4921 46.4629 45.5769 46.5927 45.6115C46.6355 45.6231 46.6796 45.6289 46.7238 45.6288C46.9531 45.6286 47.1536 45.4743 47.2127 45.2528L49.7246 35.8416C50.9574 37.7524 53.0736 38.9092 55.3476 38.9155C55.4356 38.9155 55.5237 38.9134 55.6118 38.91C58.3662 38.8137 60.7818 37.0432 61.7028 34.4455C62.6239 31.8478 61.8632 28.9511 59.7846 27.1412C57.706 25.3313 54.7322 24.9761 52.2858 26.2456L53.2298 22.7081C53.5418 21.5397 53.3769 20.2952 52.7712 19.2485C52.1655 18.2018 51.1688 17.4386 50.0004 17.1269L31.372 12.1547C28.9391 11.5083 26.4421 12.9532 25.7902 15.3847L19.773 37.9294C19.7383 38.0592 19.7567 38.1974 19.8239 38.3137C19.8912 38.43 20.002 38.5148 20.1318 38.5494Z" fill="black"/>
<path d="M84.2019 25.8659L61.581 20.1412C61.4053 20.0964 61.2191 20.1489 61.0926 20.2788C60.9662 20.4087 60.9187 20.5963 60.9683 20.7707C61.0178 20.9451 61.1567 21.0798 61.3326 21.1239L83.9535 26.8486C84.8653 27.0794 85.6481 27.6631 86.1296 28.4711C86.6111 29.2791 86.7519 30.2453 86.521 31.1572L81.7907 49.8484C81.3097 51.7471 79.3809 52.8966 77.482 52.4164L72.5985 51.1804C72.3272 51.1123 72.052 51.2765 71.983 51.5476C71.9294 51.7682 72.031 51.9973 72.2305 52.1056C73.748 54.0276 73.8666 56.7047 72.5249 58.7533C71.1832 60.802 68.6818 61.7632 66.3135 61.1402C63.9451 60.5172 62.2405 58.4496 62.0804 56.006C61.9203 53.5624 63.3408 51.2901 65.6076 50.3635C65.6247 50.3536 65.6412 50.3426 65.6569 50.3307C65.7952 50.2761 65.9006 50.1608 65.9426 50.0182C66.0108 49.7469 65.8466 49.4715 65.5754 49.4026L54.8612 46.6912C54.6854 46.6459 54.4987 46.6982 54.3719 46.8282C54.2452 46.9582 54.1977 47.1461 54.2474 47.3208C54.2972 47.4954 54.4366 47.6301 54.6128 47.6738L64.0554 50.0635C61.5937 51.6981 60.4928 54.7519 61.3453 57.5812C62.1978 60.4105 64.8025 62.3478 67.7575 62.3504C67.8772 62.3504 67.9974 62.3469 68.1177 62.341C70.4088 62.2294 72.4829 60.9513 73.6124 58.9548C74.742 56.9584 74.7694 54.5222 73.6849 52.5009L77.2338 53.3991C78.4063 53.696 79.6487 53.5149 80.6877 52.8955C81.7266 52.2762 82.4769 51.2695 82.7734 50.0968L87.5036 31.4056C88.1185 28.9645 86.6415 26.4864 84.2019 25.8659Z" fill="black"/>
<path d="M79.944 60.8535C79.8138 60.8198 79.6755 60.8394 79.5599 60.9081C79.4442 60.9767 79.3607 61.0887 79.328 61.2192L73.5696 83.8317C73.3376 84.7433 72.7529 85.5253 71.9442 86.0058C71.1355 86.4863 70.1691 86.6258 69.2575 86.3937L50.5732 81.6358C48.6763 81.1503 47.5303 79.2212 48.0112 77.3232L49.2541 72.4416C49.2874 72.3114 49.2675 72.1733 49.199 72.0577C49.1304 71.9422 49.0187 71.8587 48.8884 71.8255C48.6678 71.7694 48.4373 71.8707 48.3296 72.0713C46.6579 73.3926 44.3884 73.6699 42.4478 72.7899C40.5072 71.9099 39.2204 70.02 39.1128 67.892C38.972 65.1209 40.8475 62.6512 43.5547 62.0431C46.2618 61.4349 49.0135 62.8651 50.0713 65.4302C50.1273 65.6497 50.3253 65.8032 50.5519 65.8024C50.7833 65.8022 50.9851 65.6452 51.0423 65.421L53.7695 54.7112C53.8387 54.4401 53.675 54.1643 53.4039 54.0952C53.1328 54.026 52.857 54.1898 52.7879 54.4608L50.3839 63.901C48.9488 61.7367 46.3929 60.5957 43.8235 60.9725C41.2541 61.3493 39.1334 63.176 38.3802 65.6613C37.627 68.1465 38.3768 70.8433 40.3048 72.583C41.5336 73.6996 43.1352 74.3171 44.7955 74.3144C44.9113 74.3144 45.0276 74.3114 45.1444 74.3054C46.1198 74.2529 47.0718 73.9866 47.9328 73.5252L47.0295 77.0729C46.7308 78.2449 46.91 79.4875 47.5277 80.5273C48.1453 81.5672 49.1508 82.3191 50.3228 82.6175L69.0072 87.3754C69.3774 87.47 69.7581 87.5181 70.1402 87.5184C72.222 87.5123 74.0361 86.0991 74.5513 84.0821L80.3097 61.4696C80.343 61.3394 80.3231 61.2013 80.2545 61.0857C80.186 60.9702 80.0742 60.8867 79.944 60.8535Z" fill="black"/>
<path d="M38.2237 78.8353L15.6588 72.8929C14.7491 72.6534 13.9719 72.0623 13.4981 71.2497C13.0243 70.4371 12.8927 69.4696 13.1324 68.56L18.0422 49.9152C18.543 48.0226 20.4812 46.8923 22.3751 47.3883L27.2463 48.6713C27.4906 48.7385 27.7467 48.6128 27.843 48.3784C27.9392 48.144 27.8455 47.8746 27.6245 47.7506C26.3163 46.0682 26.0572 43.7961 26.9529 41.8623C27.8487 39.9286 29.7493 38.6569 31.8785 38.5668C34.6524 38.4485 37.1077 40.3464 37.6921 43.0606C38.2765 45.7747 36.8198 48.515 34.2432 49.5488C34.0723 49.594 33.9384 49.7266 33.8914 49.897C33.8571 50.0269 33.8758 50.1651 33.9435 50.2812C34.0111 50.3973 34.1222 50.4818 34.2521 50.516L44.9396 53.3303C45.2097 53.4005 45.4856 53.239 45.5568 52.9692C45.6279 52.6993 45.4674 52.4228 45.1979 52.3507L35.7785 49.8702C38.8279 47.8984 39.7594 43.8609 37.8822 40.7523C36.005 37.6438 31.9979 36.5887 28.8332 38.3696C25.6685 40.1505 24.4909 44.1232 26.1737 47.3411L22.6334 46.4087C20.1981 45.7679 17.7043 47.222 17.0625 49.657L12.1527 68.3017C11.8446 69.4711 12.0137 70.7151 12.6227 71.7598C13.2318 72.8046 14.231 73.5646 15.4005 73.8726L37.9655 79.815C38.1407 79.8619 38.3277 79.8115 38.4556 79.6829C38.5836 79.5542 38.6329 79.367 38.5851 79.192C38.5372 79.017 38.3994 78.8809 38.2237 78.8353Z" fill="black"/>
</svg>
