<svg width="100" height="100" viewBox="0 0 100 100" fill="none" xmlns="http://www.w3.org/2000/svg">
<rect opacity="0.01" width="100" height="100" fill="white"/>
<path fill-rule="evenodd" clip-rule="evenodd" d="M84.4611 13.591L84.4603 13.5941C85.2234 30.4643 80.3344 43.621 69.9394 52.7148C70.2632 54.1105 71.3323 60.0445 67.2849 64.2775C65.6672 65.9699 64.1726 67.4738 62.8425 68.7477C62.3768 69.199 61.7537 69.4514 61.1052 69.4514C60.9509 69.4513 60.797 69.4374 60.6452 69.4098C59.8476 69.2694 59.1674 68.7513 58.82 68.0197L55.5177 61.1662C52.7087 62.2367 49.7912 62.9972 46.817 63.4343L46.5778 63.4616L34.1769 51.0934L34.2033 50.8537C34.6346 47.8657 35.3915 44.9338 36.4606 42.1105C35.5841 41.7347 33.7239 40.8449 29.5905 38.8677L29.5836 38.8644C28.8537 38.5158 28.3351 37.8386 28.1887 37.043C28.0423 36.2475 28.2859 35.43 28.8439 34.8444C30.1061 33.5187 31.6061 32.0197 33.3019 30.3889C37.5244 26.3296 43.4609 27.3818 44.8576 27.7016C53.93 17.2712 67.0866 12.3435 83.9826 13.0701C84.0046 13.0738 84.0264 13.0792 84.0477 13.0861C84.2184 13.1062 84.3632 13.2207 84.4222 13.3821C84.4316 13.4113 84.4382 13.4412 84.4421 13.4715C84.4497 13.4964 84.4553 13.5218 84.4591 13.5475L84.4601 13.5845L84.4611 13.591ZM68.9387 52.3204C68.9717 52.2526 69.0198 52.1933 69.0792 52.147C79.2889 43.3339 84.125 30.5176 83.4728 14.0587C67.0065 13.4576 54.2102 18.3263 45.4268 28.5609L45.4093 28.5801L45.4083 28.5812L45.4059 28.583C45.361 28.6338 45.3063 28.6749 45.2449 28.7037C45.2291 28.7101 45.2129 28.7155 45.1964 28.72C45.1502 28.7376 45.1015 28.748 45.0522 28.7509C45.0441 28.7513 45.0366 28.7561 45.0284 28.7561C45.0072 28.7537 44.9863 28.75 44.9656 28.7451C44.9428 28.7452 44.9201 28.7436 44.8976 28.7404C44.8326 28.7223 38.2872 26.9826 33.9952 31.1096C32.3097 32.7302 30.8205 34.2189 29.5685 35.5339C29.231 35.8874 29.0835 36.3814 29.172 36.862C29.2604 37.3427 29.574 37.7518 30.0152 37.9621C30.0152 37.9621 37.1925 41.3957 37.2872 41.4406L37.7028 41.6369L37.5426 42.0681C36.4727 44.8672 35.6971 47.77 35.2282 50.7297L46.9386 62.4093C49.8968 61.932 52.7974 61.1481 55.5934 60.0705C56.0485 59.964 56.049 59.965 59.6743 67.4895L59.7208 67.5861C59.9326 68.0267 60.3427 68.339 60.8238 68.426C61.3048 68.513 61.7984 68.3641 62.151 68.0256C63.4703 66.7619 64.9547 65.2682 66.5621 63.5861C70.6779 59.2819 68.9186 52.7428 68.9005 52.6769C68.8921 52.6359 68.889 52.594 68.8914 52.5522C68.8913 52.545 68.8904 52.5379 68.8894 52.5308C68.8882 52.5214 68.8869 52.5119 68.8878 52.5024C68.8931 52.4475 68.9077 52.3939 68.9309 52.3439C68.9343 52.3362 68.9349 52.3279 68.9387 52.3204Z" fill="black"/>
<path fill-rule="evenodd" clip-rule="evenodd" d="M53.4448 36.5974C53.445 32.2912 56.936 28.8004 61.2422 28.8005C65.5463 28.8058 69.0341 32.2938 69.0391 36.5979C69.0389 40.9041 65.5479 44.3949 61.2417 44.3948C56.9355 44.3946 53.4447 40.9036 53.4448 36.5974ZM54.9623 39.1989C56.0144 41.7388 58.493 43.3949 61.2422 43.3948C64.9942 43.3905 68.0348 40.3499 68.0391 36.5979C68.0392 33.8487 66.3831 31.3701 63.8432 30.318C61.3033 29.2659 58.3796 29.8474 56.4357 31.7914C54.4917 33.7354 53.9101 36.659 54.9623 39.1989Z" fill="black"/>
<path d="M38.8199 65.7702C38.5828 65.6283 38.2757 65.7055 38.1339 65.9425C37.992 66.1796 38.0692 66.4867 38.3062 66.6286C40.1361 67.8117 41.2376 69.8451 41.2291 72.0241C41.1873 74.2288 40.295 76.332 38.7388 77.8942C37.1543 79.4681 35.1865 80.6013 33.0298 81.1818C32.0772 81.4587 31.0757 81.6569 30.108 81.8488L29.3003 82.0109C25.7411 82.7408 22.2488 83.7653 18.8594 85.0739C18.7281 85.1247 18.5952 85.1823 18.4634 85.2458C18.0279 85.4587 17.5169 85.4511 17.0879 85.2253C16.718 85.0346 16.465 84.6749 16.4106 84.2624C16.146 82.282 16.2203 80.271 16.6304 78.3156C17.2805 75.3675 18.4387 72.555 20.0532 70.0041C20.8101 68.7643 20.8393 67.7277 20.1343 67.1608C19.8028 66.9283 19.411 66.7969 19.0063 66.7824L15.7705 66.4123C15.6803 66.4045 15.5909 66.3898 15.5029 66.3683C15.5 66.3595 15.4766 66.274 15.5864 65.9864C16.6682 62.7349 18.9344 60.0098 21.9341 58.3531C25.0732 56.8175 29.0054 57.3649 31.0781 59.628C31.2648 59.8312 31.5808 59.8447 31.7842 59.6583C31.9876 59.4719 32.0015 59.1559 31.8154 58.9523C29.416 56.3331 25.0761 55.7027 21.4946 57.4547C18.2664 59.2219 15.823 62.1411 14.6519 65.63C14.4281 66.071 14.4608 66.5985 14.7373 67.0085C14.9816 67.2535 15.3105 67.3955 15.6563 67.4055L18.8927 67.7756C19.1076 67.7802 19.3183 67.8365 19.5069 67.9396C19.8209 68.1921 19.5543 68.9025 19.1998 69.4826C17.5245 72.1331 16.3233 75.055 15.65 78.1174C15.2178 80.1838 15.1402 82.3086 15.4204 84.401C15.5204 85.1291 15.9652 85.7643 16.6153 86.1071C16.9769 86.2995 17.3804 86.3998 17.7901 86.3991C18.1733 86.3992 18.5516 86.3131 18.897 86.1471C19.0044 86.0953 19.1118 86.0486 19.2193 86.007C22.5569 84.7183 25.9958 83.7093 29.5005 82.9904L30.3023 82.8297C31.2915 82.6339 32.3145 82.4308 33.3091 82.1417C35.634 81.5125 37.7543 80.287 39.46 78.5865C41.1963 76.8358 42.1885 74.4816 42.229 72.0162C42.2312 69.4893 40.9463 67.1353 38.8199 65.7702Z" fill="black"/>
</svg>
