<svg width="60" height="60" viewBox="0 0 60 60" fill="none" xmlns="http://www.w3.org/2000/svg">
<path fill-rule="evenodd" clip-rule="evenodd" d="M39.893 23.5903V27.193H36.1946V29.7155H39.893V33.32H42.6661V29.7155H46.3635V27.1029H42.6661V23.5903H39.893ZM23.624 26.3825V30.4366H29.1702C28.8005 32.7789 26.6744 34.4906 23.624 34.4906C20.2963 34.4906 17.5232 31.6978 17.5232 28.4546C17.5232 25.2113 20.2038 22.4186 23.624 22.4186C25.1954 22.4186 26.4895 22.869 27.5988 23.9501L30.5568 21.0672C28.708 19.4456 26.3971 18.4546 23.624 18.4546C17.9854 18.4546 13.3635 22.9591 13.3635 28.4546C13.3635 33.9501 17.9854 38.4546 23.624 38.4546C29.6324 38.4546 33.5147 34.3104 33.5147 28.6348C33.5147 27.9141 33.4223 27.1032 33.3299 26.3825H23.624Z" fill="white"/>
</svg>
